<mxfile host="app.diagrams.net" modified="2020-08-26T03:06:16.709Z" agent="5.0 (Windows NT 10.0; Win64; x64) AppleWebKit/537.36 (KHTML, like Gecko) Chrome/84.0.4147.135 Safari/537.36" etag="ae2b169gExGwiLb-3uzr" version="13.6.5" type="github">
  <diagram id="QZkJjBfgTAIyttPgU-cu" name="Page-1">
    <mxGraphModel dx="1021" dy="1781" grid="1" gridSize="10" guides="1" tooltips="1" connect="1" arrows="1" fold="1" page="1" pageScale="1" pageWidth="827" pageHeight="1169" math="0" shadow="0">
      <root>
        <mxCell id="0" />
        <mxCell id="1" parent="0" />
        <mxCell id="ONbaFNnml2gXOw2SobQo-5" style="edgeStyle=orthogonalEdgeStyle;rounded=0;orthogonalLoop=1;jettySize=auto;html=1;exitX=0.5;exitY=0.5;exitDx=0;exitDy=0;exitPerimeter=0;" edge="1" parent="1" source="ONbaFNnml2gXOw2SobQo-1" target="ONbaFNnml2gXOw2SobQo-4">
          <mxGeometry relative="1" as="geometry">
            <mxPoint x="140" y="150" as="targetPoint" />
          </mxGeometry>
        </mxCell>
        <mxCell id="ONbaFNnml2gXOw2SobQo-1" value="Aseguradora" style="shape=umlActor;verticalLabelPosition=bottom;verticalAlign=top;html=1;outlineConnect=0;" vertex="1" parent="1">
          <mxGeometry x="80" y="100" width="30" height="60" as="geometry" />
        </mxCell>
        <mxCell id="ONbaFNnml2gXOw2SobQo-6" style="edgeStyle=orthogonalEdgeStyle;rounded=0;orthogonalLoop=1;jettySize=auto;html=1;exitX=0.5;exitY=0.5;exitDx=0;exitDy=0;exitPerimeter=0;" edge="1" parent="1" source="ONbaFNnml2gXOw2SobQo-2">
          <mxGeometry relative="1" as="geometry">
            <mxPoint x="520" y="210" as="targetPoint" />
          </mxGeometry>
        </mxCell>
        <mxCell id="ONbaFNnml2gXOw2SobQo-2" value="Cliente" style="shape=umlActor;verticalLabelPosition=bottom;verticalAlign=top;html=1;outlineConnect=0;" vertex="1" parent="1">
          <mxGeometry x="620" y="230" width="30" height="60" as="geometry" />
        </mxCell>
        <mxCell id="ONbaFNnml2gXOw2SobQo-13" style="edgeStyle=orthogonalEdgeStyle;rounded=0;orthogonalLoop=1;jettySize=auto;html=1;exitX=1;exitY=0.5;exitDx=0;exitDy=0;entryX=0.008;entryY=0.367;entryDx=0;entryDy=0;entryPerimeter=0;" edge="1" parent="1" source="ONbaFNnml2gXOw2SobQo-4" target="ONbaFNnml2gXOw2SobQo-7">
          <mxGeometry relative="1" as="geometry" />
        </mxCell>
        <mxCell id="ONbaFNnml2gXOw2SobQo-15" value="A favor del" style="edgeStyle=orthogonalEdgeStyle;rounded=0;orthogonalLoop=1;jettySize=auto;html=1;entryX=0.5;entryY=0;entryDx=0;entryDy=0;entryPerimeter=0;" edge="1" parent="1" source="ONbaFNnml2gXOw2SobQo-4" target="ONbaFNnml2gXOw2SobQo-8">
          <mxGeometry relative="1" as="geometry" />
        </mxCell>
        <mxCell id="ONbaFNnml2gXOw2SobQo-4" value="Emite el endoso" style="ellipse;whiteSpace=wrap;html=1;" vertex="1" parent="1">
          <mxGeometry x="180" y="90" width="120" height="80" as="geometry" />
        </mxCell>
        <mxCell id="ONbaFNnml2gXOw2SobQo-7" value="Auto" style="rounded=1;whiteSpace=wrap;html=1;" vertex="1" parent="1">
          <mxGeometry x="460" y="150" width="120" height="60" as="geometry" />
        </mxCell>
        <mxCell id="ONbaFNnml2gXOw2SobQo-14" value="Préstamo" style="edgeStyle=orthogonalEdgeStyle;rounded=0;orthogonalLoop=1;jettySize=auto;html=1;exitX=0.5;exitY=0.5;exitDx=0;exitDy=0;exitPerimeter=0;entryX=0;entryY=1;entryDx=0;entryDy=0;entryPerimeter=0;" edge="1" parent="1" source="ONbaFNnml2gXOw2SobQo-8" target="ONbaFNnml2gXOw2SobQo-2">
          <mxGeometry relative="1" as="geometry">
            <Array as="points">
              <mxPoint x="450" y="320" />
              <mxPoint x="450" y="290" />
            </Array>
          </mxGeometry>
        </mxCell>
        <mxCell id="ONbaFNnml2gXOw2SobQo-8" value="Acreedor" style="shape=umlActor;verticalLabelPosition=bottom;verticalAlign=top;html=1;outlineConnect=0;" vertex="1" parent="1">
          <mxGeometry x="230" y="290" width="30" height="60" as="geometry" />
        </mxCell>
        <mxCell id="ONbaFNnml2gXOw2SobQo-9" value="Persona que tiene derecho a pedir que se cumpla la obligación" style="text;html=1;strokeColor=none;fillColor=none;align=center;verticalAlign=middle;whiteSpace=wrap;rounded=0;" vertex="1" parent="1">
          <mxGeometry x="170" y="410" width="150" height="20" as="geometry" />
        </mxCell>
        <mxCell id="ONbaFNnml2gXOw2SobQo-11" value="&lt;h1&gt;Utilidad del endoso&lt;/h1&gt;&lt;p&gt;&lt;/p&gt;&lt;ul&gt;&lt;li&gt;Modificar alguna cobertura.&lt;/li&gt;&lt;li&gt;Aclarar alguna claúsula del contrato de seguro&lt;/li&gt;&lt;li&gt;Cambio de datos del contratante&lt;/li&gt;&lt;li&gt;&lt;br&gt;&lt;/li&gt;&lt;/ul&gt;&lt;p&gt;&lt;/p&gt;" style="text;html=1;strokeColor=none;fillColor=none;spacing=5;spacingTop=-20;whiteSpace=wrap;overflow=hidden;rounded=0;" vertex="1" parent="1">
          <mxGeometry x="125" y="-70" width="240" height="120" as="geometry" />
        </mxCell>
        <mxCell id="ONbaFNnml2gXOw2SobQo-12" value="Contratante" style="text;html=1;strokeColor=none;fillColor=none;align=center;verticalAlign=middle;whiteSpace=wrap;rounded=0;" vertex="1" parent="1">
          <mxGeometry x="560" y="320" width="150" height="20" as="geometry" />
        </mxCell>
      </root>
    </mxGraphModel>
  </diagram>
</mxfile>
